<svg width="220" height="105" viewBox="0 0 220 105" fill="none" xmlns="http://www.w3.org/2000/svg">
<mask id="mask0_201_31" style="mask-type:alpha" maskUnits="userSpaceOnUse" x="0" y="0" width="220" height="105">
<path fill-rule="evenodd" clip-rule="evenodd" d="M112.828 1.85785C111.266 0.295755 108.734 0.295756 107.172 1.85785L100.029 8.99998H4C1.79086 8.99998 0 10.7909 0 13V101C0 103.209 1.79086 105 4 105H216C218.209 105 220 103.209 220 101V13C220 10.7909 218.209 8.99998 216 8.99998H119.971L112.828 1.85785Z" fill="white"/>
</mask>
<g mask="url(#mask0_201_31)">
<path fill-rule="evenodd" clip-rule="evenodd" d="M112.828 1.85785C111.266 0.295755 108.734 0.295756 107.172 1.85785L100.029 8.99998H4C1.79086 8.99998 0 10.7909 0 13V101C0 103.209 1.79086 105 4 105H216C218.209 105 220 103.209 220 101V13C220 10.7909 218.209 8.99998 216 8.99998H119.971L112.828 1.85785Z" fill="#000001"/>
<path d="M107.172 1.85785L106.464 1.15074V1.15075L107.172 1.85785ZM112.828 1.85785L113.536 1.15075V1.15074L112.828 1.85785ZM100.029 8.99998V9.99997H100.444L100.737 9.70708L100.029 8.99998ZM119.971 8.99998L119.263 9.70708L119.556 9.99997H119.971V8.99998ZM107.879 2.56496C109.05 1.39339 110.95 1.39339 112.121 2.56496L113.536 1.15074C111.583 -0.801874 108.417 -0.801874 106.464 1.15074L107.879 2.56496ZM100.737 9.70708L107.879 2.56496L106.464 1.15075L99.3223 8.29287L100.737 9.70708ZM4 9.99997H100.029V7.99998H4V9.99997ZM1 13C1 11.3432 2.34315 9.99997 4 9.99997V7.99998C1.23858 7.99998 -1 10.2386 -1 13H1ZM1 101V13H-1V101H1ZM4 104C2.34314 104 1 102.657 1 101H-1C-1 103.761 1.23857 106 4 106V104ZM216 104H4V106H216V104ZM219 101C219 102.657 217.657 104 216 104V106C218.761 106 221 103.761 221 101H219ZM219 13V101H221V13H219ZM216 9.99997C217.657 9.99997 219 11.3432 219 13H221C221 10.2386 218.761 7.99998 216 7.99998V9.99997ZM119.971 9.99997H216V7.99998H119.971V9.99997ZM112.121 2.56496L119.263 9.70708L120.678 8.29287L113.536 1.15075L112.121 2.56496Z" fill="#EC17FF" fill-opacity="0.43"/>
</g>
</svg>
