<svg width="98" height="24" viewBox="0 0 98 24" fill="none" xmlns="http://www.w3.org/2000/svg">
<rect width="23.5789" height="23.5789" rx="8.42105" fill="#4743FF"/>
<path d="M15.1716 11.2941L12.1733 16.4954L9.16627 11.2941H15.1716ZM18.1748 9.55651H6.16311L12.1733 19.9628L18.1748 9.56037V9.55651ZM4.161 6.09288L5.16205 7.83049H19.1759L20.1769 6.09288H4.161Z" fill="white"/>
<rect x="74" width="23.5789" height="23.5789" rx="8.42105" fill="#01943F"/>
<path d="M82.9571 7.69969C82.9654 7.69477 82.9742 7.69079 82.9833 7.68783C83.0802 7.64254 83.1785 7.59968 83.2761 7.56166V5.63569C83.2763 5.46746 83.2097 5.30602 83.091 5.18683C82.9722 5.06765 82.811 5.00045 82.6428 5H80.017V10.5282C80.6582 9.28687 81.6919 8.29241 82.9571 7.69969Z" fill="white"/>
<path d="M85.6307 11.0663H86.2162C86.4182 11.0664 86.6183 11.0267 86.8049 10.9494C86.9916 10.8722 87.1611 10.7589 87.304 10.6161C87.4468 10.4732 87.5601 10.3036 87.6374 10.117C87.7146 9.93036 87.7543 9.73031 87.7542 9.52831V7.88157C87.4375 7.82684 85.99 7.79584 85.6544 7.79584C84.2234 7.79494 82.8453 8.33707 81.7984 9.31277C80.7516 10.2885 80.114 11.625 80.0143 13.0526C80.0048 13.1836 80 13.3144 80 13.4478C80 13.5812 80.0048 13.712 80.0143 13.843V17.3571C80.0143 17.4403 80.0306 17.5227 80.0624 17.5995C80.0942 17.6764 80.1409 17.7462 80.1997 17.805C80.2585 17.8638 80.3283 17.9105 80.4052 17.9423C80.482 17.9741 80.5644 17.9904 80.6476 17.9904H83.2739V13.4161C83.2754 12.7922 83.5244 12.1943 83.9663 11.7539C84.4083 11.3134 85.007 11.0664 85.6309 11.0671L85.6307 11.0663Z" fill="white"/>
<path d="M88.9518 15.2895C88.9435 15.2944 88.9347 15.2984 88.9256 15.3014C88.8287 15.3466 88.7304 15.3895 88.6328 15.4275V17.3535C88.6326 17.5217 88.6992 17.6832 88.8179 17.8024C88.9367 17.9215 89.0979 17.9887 89.2661 17.9892H91.8898V12.4612C91.2487 13.7019 90.2159 14.6961 88.9518 15.2895V15.2895Z" fill="white"/>
<path d="M91.8898 9.14738V5.63327C91.8898 5.5501 91.8734 5.46774 91.8416 5.39089C91.8098 5.31404 91.7632 5.24422 91.7044 5.18541C91.6455 5.1266 91.5757 5.07995 91.4989 5.04814C91.422 5.01633 91.3397 4.99997 91.2565 5H88.6304V9.57335C88.6291 10.1969 88.3804 10.7945 87.9389 11.2349C87.4975 11.6753 86.8994 11.9225 86.2758 11.9224H85.6878C85.4858 11.9223 85.2858 11.962 85.0991 12.0393C84.9125 12.1165 84.7429 12.2298 84.6001 12.3726C84.4572 12.5155 84.3439 12.6851 84.2667 12.8717C84.1894 13.0584 84.1497 13.2584 84.1498 13.4604V15.1071C84.4666 15.1619 85.914 15.1929 86.2497 15.1929C86.2877 15.1929 86.3223 15.1929 86.3615 15.1905C87.1489 15.177 87.9246 14.9977 88.6379 14.6642L88.6522 14.6572C89.5644 14.2308 90.3459 13.5681 90.9156 12.7378C91.4852 11.9075 91.8224 10.9399 91.8919 9.9354C91.9014 9.80438 91.9062 9.67361 91.9062 9.54018C91.9062 9.40674 91.8992 9.27815 91.8898 9.14738Z" fill="white"/>
<path fill-rule="evenodd" clip-rule="evenodd" d="M49 9C49.2761 9 49.5 8.77614 49.5 8.5C49.5 8.22386 49.2761 8 49 8C48.7239 8 48.5 8.22386 48.5 8.5C48.5 8.77614 48.7239 9 49 9ZM49 13C49.5523 13 50 12.5523 50 12C50 11.4477 49.5523 11 49 11C48.4477 11 48 11.4477 48 12C48 12.5523 48.4477 13 49 13ZM52.5 12.5C52.7761 12.5 53 12.2761 53 12C53 11.7239 52.7761 11.5 52.5 11.5C52.2239 11.5 52 11.7239 52 12C52 12.2761 52.2239 12.5 52.5 12.5ZM46 12C46 12.2761 45.7761 12.5 45.5 12.5C45.2239 12.5 45 12.2761 45 12C45 11.7239 45.2239 11.5 45.5 11.5C45.7761 11.5 46 11.7239 46 12ZM43 12C43 12.2761 42.7761 12.5 42.5 12.5C42.2239 12.5 42 12.2761 42 12C42 11.7239 42.2239 11.5 42.5 11.5C42.7761 11.5 43 11.7239 43 12ZM39.5 12.5C39.7761 12.5 40 12.2761 40 12C40 11.7239 39.7761 11.5 39.5 11.5C39.2239 11.5 39 11.7239 39 12C39 12.2761 39.2239 12.5 39.5 12.5ZM37 12C37 12.2761 36.7761 12.5 36.5 12.5C36.2239 12.5 36 12.2761 36 12C36 11.7239 36.2239 11.5 36.5 11.5C36.7761 11.5 37 11.7239 37 12ZM33.5 12.5C33.7761 12.5 34 12.2761 34 12C34 11.7239 33.7761 11.5 33.5 11.5C33.2239 11.5 33 11.7239 33 12C33 12.2761 33.2239 12.5 33.5 12.5ZM31 12C31 12.5523 30.5523 13 30 13C29.4477 13 29 12.5523 29 12C29 11.4477 29.4477 11 30 11C30.5523 11 31 11.4477 31 12ZM55.5 12.5C55.7761 12.5 56 12.2761 56 12C56 11.7239 55.7761 11.5 55.5 11.5C55.2239 11.5 55 11.7239 55 12C55 12.2761 55.2239 12.5 55.5 12.5ZM59 12C59 12.2761 58.7761 12.5 58.5 12.5C58.2239 12.5 58 12.2761 58 12C58 11.7239 58.2239 11.5 58.5 11.5C58.7761 11.5 59 11.7239 59 12ZM61.5 12.5C61.7761 12.5 62 12.2761 62 12C62 11.7239 61.7761 11.5 61.5 11.5C61.2239 11.5 61 11.7239 61 12C61 12.2761 61.2239 12.5 61.5 12.5ZM65 12C65 12.2761 64.7761 12.5 64.5 12.5C64.2239 12.5 64 12.2761 64 12C64 11.7239 64.2239 11.5 64.5 11.5C64.7761 11.5 65 11.7239 65 12ZM68 13C68.5523 13 69 12.5523 69 12C69 11.4477 68.5523 11 68 11C67.4477 11 67 11.4477 67 12C67 12.5523 67.4477 13 68 13Z" fill="white"/>
<path d="M36 9.75C36 8.12602 37.3165 6.80952 38.9405 6.80952H59.0595C60.6835 6.80952 62 8.12602 62 9.75V13.7738C62 15.3978 60.6835 16.7143 59.0595 16.7143H38.9405C37.3165 16.7143 36 15.3978 36 13.7738V9.75Z" fill="#55FFB8"/>
<path d="M43.882 14.5L41.8761 9.29855H42.6741L44.2919 13.5787L45.9132 9.29855H46.7076L44.7017 14.5H43.882ZM48.3398 9.29855V13.7564H51.0131V14.5H47.5963V9.29855H48.3398ZM52.3951 9.29855L53.7843 11.2464L55.1808 9.29855H56.0804L54.2377 11.8775L56.1203 14.5H55.2207L53.7843 12.5014L52.3588 14.5H51.4593L53.3418 11.8775L51.4992 9.29855H52.3951Z" fill="#010003"/>
</svg>
