<svg width="98" height="24" viewBox="0 0 98 24" fill="none" xmlns="http://www.w3.org/2000/svg">
<path fill-rule="evenodd" clip-rule="evenodd" d="M49 9C49.2761 9 49.5 8.77614 49.5 8.5C49.5 8.22386 49.2761 8 49 8C48.7239 8 48.5 8.22386 48.5 8.5C48.5 8.77614 48.7239 9 49 9ZM49 13C49.5523 13 50 12.5523 50 12C50 11.4477 49.5523 11 49 11C48.4477 11 48 11.4477 48 12C48 12.5523 48.4477 13 49 13ZM52.5 12.5C52.7761 12.5 53 12.2761 53 12C53 11.7239 52.7761 11.5 52.5 11.5C52.2239 11.5 52 11.7239 52 12C52 12.2761 52.2239 12.5 52.5 12.5ZM46 12C46 12.2761 45.7761 12.5 45.5 12.5C45.2239 12.5 45 12.2761 45 12C45 11.7239 45.2239 11.5 45.5 11.5C45.7761 11.5 46 11.7239 46 12ZM43 12C43 12.2761 42.7761 12.5 42.5 12.5C42.2239 12.5 42 12.2761 42 12C42 11.7239 42.2239 11.5 42.5 11.5C42.7761 11.5 43 11.7239 43 12ZM39.5 12.5C39.7761 12.5 40 12.2761 40 12C40 11.7239 39.7761 11.5 39.5 11.5C39.2239 11.5 39 11.7239 39 12C39 12.2761 39.2239 12.5 39.5 12.5ZM37 12C37 12.2761 36.7761 12.5 36.5 12.5C36.2239 12.5 36 12.2761 36 12C36 11.7239 36.2239 11.5 36.5 11.5C36.7761 11.5 37 11.7239 37 12ZM33.5 12.5C33.7761 12.5 34 12.2761 34 12C34 11.7239 33.7761 11.5 33.5 11.5C33.2239 11.5 33 11.7239 33 12C33 12.2761 33.2239 12.5 33.5 12.5ZM31 12C31 12.5523 30.5523 13 30 13C29.4477 13 29 12.5523 29 12C29 11.4477 29.4477 11 30 11C30.5523 11 31 11.4477 31 12ZM55.5 12.5C55.7761 12.5 56 12.2761 56 12C56 11.7239 55.7761 11.5 55.5 11.5C55.2239 11.5 55 11.7239 55 12C55 12.2761 55.2239 12.5 55.5 12.5ZM59 12C59 12.2761 58.7761 12.5 58.5 12.5C58.2239 12.5 58 12.2761 58 12C58 11.7239 58.2239 11.5 58.5 11.5C58.7761 11.5 59 11.7239 59 12ZM61.5 12.5C61.7761 12.5 62 12.2761 62 12C62 11.7239 61.7761 11.5 61.5 11.5C61.2239 11.5 61 11.7239 61 12C61 12.2761 61.2239 12.5 61.5 12.5ZM65 12C65 12.2761 64.7761 12.5 64.5 12.5C64.2239 12.5 64 12.2761 64 12C64 11.7239 64.2239 11.5 64.5 11.5C64.7761 11.5 65 11.7239 65 12ZM68 13C68.5523 13 69 12.5523 69 12C69 11.4477 68.5523 11 68 11C67.4477 11 67 11.4477 67 12C67 12.5523 67.4477 13 68 13Z" fill="url(#paint0_linear_7_430)"/>
<path d="M36 9.75C36 8.12602 37.3165 6.80952 38.9405 6.80952H59.0595C60.6835 6.80952 62 8.12602 62 9.75V13.7738C62 15.3978 60.6835 16.7143 59.0595 16.7143H38.9405C37.3165 16.7143 36 15.3978 36 13.7738V9.75Z" fill="#296ACA"/>
<path d="M38.5137 9.29855H39.2573V13.7564H42.228V9.29855H42.9715V13.7564C42.9715 13.858 42.9522 13.9547 42.9135 14.0466C42.8748 14.1361 42.8216 14.2147 42.7539 14.2824C42.6862 14.3501 42.6064 14.4033 42.5145 14.442C42.425 14.4807 42.3295 14.5 42.228 14.5H39.2573C39.1557 14.5 39.059 14.4807 38.9671 14.442C38.8776 14.4033 38.799 14.3501 38.7313 14.2824C38.6636 14.2147 38.6104 14.1361 38.5717 14.0466C38.533 13.9547 38.5137 13.858 38.5137 13.7564V9.29855ZM45.0536 12.2729C44.952 12.2729 44.8553 12.2535 44.7634 12.2148C44.6739 12.1737 44.5953 12.1205 44.5276 12.0552C44.4599 11.9875 44.4067 11.9089 44.368 11.8195C44.3293 11.7276 44.31 11.6309 44.31 11.5293V10.0421C44.31 9.94057 44.3293 9.84505 44.368 9.75558C44.4067 9.66369 44.4599 9.5851 44.5276 9.51981C44.5953 9.4521 44.6739 9.3989 44.7634 9.36021C44.8553 9.3191 44.952 9.29855 45.0536 9.29855H47.5781C47.6797 9.29855 47.7752 9.3191 47.8647 9.36021C47.9566 9.3989 48.0364 9.4521 48.1041 9.51981C48.1718 9.5851 48.225 9.66369 48.2637 9.75558C48.3024 9.84505 48.3217 9.94057 48.3217 10.0421V10.7132H47.5781V10.0421H45.0536V11.5293H47.5781C47.6797 11.5293 47.7752 11.5486 47.8647 11.5873C47.9566 11.626 48.0364 11.6792 48.1041 11.7469C48.1718 11.8146 48.225 11.8944 48.2637 11.9863C48.3024 12.0758 48.3217 12.1713 48.3217 12.2729V13.7564C48.3217 13.858 48.3024 13.9547 48.2637 14.0466C48.225 14.1361 48.1718 14.2147 48.1041 14.2824C48.0364 14.3501 47.9566 14.4033 47.8647 14.442C47.7752 14.4807 47.6797 14.5 47.5781 14.5H44.981C44.8795 14.5 44.7827 14.4807 44.6908 14.442C44.6014 14.4033 44.5228 14.3501 44.4551 14.2824C44.3874 14.2147 44.3342 14.1361 44.2955 14.0466C44.2568 13.9547 44.2374 13.858 44.2374 13.7564V13.089H44.981V13.7564H47.5781V12.2729H45.0536ZM52.308 13.7564C52.6538 13.7564 52.9198 13.6633 53.106 13.4771C53.2922 13.2909 53.3853 13.0249 53.3853 12.6791V11.1194C53.3853 10.9501 53.3611 10.799 53.3128 10.666C53.2644 10.533 53.1931 10.4206 53.0988 10.3287C53.0069 10.2344 52.8944 10.163 52.7614 10.1147C52.6284 10.0663 52.4773 10.0421 52.308 10.0421H50.4074V13.7564H52.308ZM49.6638 14.5V9.29855H52.308C52.5861 9.29855 52.8364 9.34208 53.0589 9.42913C53.2838 9.51377 53.4748 9.63588 53.632 9.79548C53.7916 9.95266 53.9137 10.1437 53.9983 10.3686C54.0854 10.5935 54.1289 10.8438 54.1289 11.1194V12.6791C54.1289 12.9548 54.0854 13.2051 53.9983 13.43C53.9137 13.6549 53.7916 13.8471 53.632 14.0067C53.4748 14.1639 53.2838 14.286 53.0589 14.373C52.8364 14.4577 52.5861 14.5 52.308 14.5H49.6638ZM55.3223 10.0421C55.3223 9.94057 55.3416 9.84505 55.3803 9.75558C55.419 9.66369 55.4722 9.5851 55.5399 9.51981C55.6076 9.4521 55.6862 9.3989 55.7757 9.36021C55.8676 9.3191 55.9643 9.29855 56.0658 9.29855H58.8878C58.9894 9.29855 59.0849 9.3191 59.1744 9.36021C59.2663 9.3989 59.3461 9.4521 59.4138 9.51981C59.4815 9.5851 59.5347 9.66369 59.5734 9.75558C59.6121 9.84505 59.6314 9.94057 59.6314 10.0421V10.7132H58.8878V10.0421H56.0658V13.7564H58.8878V13.089H59.6314V13.7564C59.6314 13.858 59.6121 13.9547 59.5734 14.0466C59.5347 14.1361 59.4815 14.2147 59.4138 14.2824C59.3461 14.3501 59.2663 14.4033 59.1744 14.442C59.0849 14.4807 58.9894 14.5 58.8878 14.5H56.0658C55.9643 14.5 55.8676 14.4807 55.7757 14.442C55.6862 14.4033 55.6076 14.3501 55.5399 14.2824C55.4722 14.2147 55.419 14.1361 55.3803 14.0466C55.3416 13.9547 55.3223 13.858 55.3223 13.7564V10.0421Z" fill="white"/>
<rect x="74" width="23.5789" height="23.5789" rx="8.42105" fill="#4743FF"/>
<path d="M89.1716 11.2941L86.1733 16.4954L83.1663 11.2941H89.1716ZM92.1748 9.55651H80.1631L86.1733 19.9628L92.1748 9.56037V9.55651ZM78.161 6.09288L79.1621 7.83049H93.1759L94.1769 6.09288H78.161Z" fill="white"/>
<rect width="23.5789" height="23.5789" rx="8.42105" fill="white"/>
<path d="M12.2179 3L12.1038 3.38741V14.6281L12.2179 14.7419L17.4356 11.6576L12.2179 3Z" fill="#343434"/>
<path d="M12.2178 3L7 11.6576L12.2178 14.7419V9.28595V3Z" fill="#8C8C8C"/>
<path d="M12.2178 15.7297L12.1535 15.8081V19.8122L12.2178 19.9998L17.4386 12.6471L12.2178 15.7297Z" fill="#3C3C3B"/>
<path d="M12.2178 19.9998V15.7297L7 12.6471L12.2178 19.9998Z" fill="#8C8C8C"/>
<path d="M12.2178 14.7418L17.4355 11.6576L12.2178 9.2859V14.7418Z" fill="#141414"/>
<path d="M7 11.6576L12.2178 14.7418V9.2859L7 11.6576Z" fill="#393939"/>
<defs>
<linearGradient id="paint0_linear_7_430" x1="67.5" y1="12.3751" x2="29" y2="12.3751" gradientUnits="userSpaceOnUse">
<stop stop-color="white"/>
<stop offset="1" stop-color="white"/>
</linearGradient>
</defs>
</svg>
