<svg width="98" height="24" viewBox="0 0 98 24" fill="none" xmlns="http://www.w3.org/2000/svg">
<path fill-rule="evenodd" clip-rule="evenodd" d="M49 9C49.2761 9 49.5 8.77614 49.5 8.5C49.5 8.22386 49.2761 8 49 8C48.7239 8 48.5 8.22386 48.5 8.5C48.5 8.77614 48.7239 9 49 9ZM49 13C49.5523 13 50 12.5523 50 12C50 11.4477 49.5523 11 49 11C48.4477 11 48 11.4477 48 12C48 12.5523 48.4477 13 49 13ZM52.5 12.5C52.7761 12.5 53 12.2761 53 12C53 11.7239 52.7761 11.5 52.5 11.5C52.2239 11.5 52 11.7239 52 12C52 12.2761 52.2239 12.5 52.5 12.5ZM46 12C46 12.2761 45.7761 12.5 45.5 12.5C45.2239 12.5 45 12.2761 45 12C45 11.7239 45.2239 11.5 45.5 11.5C45.7761 11.5 46 11.7239 46 12ZM43 12C43 12.2761 42.7761 12.5 42.5 12.5C42.2239 12.5 42 12.2761 42 12C42 11.7239 42.2239 11.5 42.5 11.5C42.7761 11.5 43 11.7239 43 12ZM39.5 12.5C39.7761 12.5 40 12.2761 40 12C40 11.7239 39.7761 11.5 39.5 11.5C39.2239 11.5 39 11.7239 39 12C39 12.2761 39.2239 12.5 39.5 12.5ZM37 12C37 12.2761 36.7761 12.5 36.5 12.5C36.2239 12.5 36 12.2761 36 12C36 11.7239 36.2239 11.5 36.5 11.5C36.7761 11.5 37 11.7239 37 12ZM33.5 12.5C33.7761 12.5 34 12.2761 34 12C34 11.7239 33.7761 11.5 33.5 11.5C33.2239 11.5 33 11.7239 33 12C33 12.2761 33.2239 12.5 33.5 12.5ZM31 12C31 12.5523 30.5523 13 30 13C29.4477 13 29 12.5523 29 12C29 11.4477 29.4477 11 30 11C30.5523 11 31 11.4477 31 12ZM55.5 12.5C55.7761 12.5 56 12.2761 56 12C56 11.7239 55.7761 11.5 55.5 11.5C55.2239 11.5 55 11.7239 55 12C55 12.2761 55.2239 12.5 55.5 12.5ZM59 12C59 12.2761 58.7761 12.5 58.5 12.5C58.2239 12.5 58 12.2761 58 12C58 11.7239 58.2239 11.5 58.5 11.5C58.7761 11.5 59 11.7239 59 12ZM61.5 12.5C61.7761 12.5 62 12.2761 62 12C62 11.7239 61.7761 11.5 61.5 11.5C61.2239 11.5 61 11.7239 61 12C61 12.2761 61.2239 12.5 61.5 12.5ZM65 12C65 12.2761 64.7761 12.5 64.5 12.5C64.2239 12.5 64 12.2761 64 12C64 11.7239 64.2239 11.5 64.5 11.5C64.7761 11.5 65 11.7239 65 12ZM68 13C68.5523 13 69 12.5523 69 12C69 11.4477 68.5523 11 68 11C67.4477 11 67 11.4477 67 12C67 12.5523 67.4477 13 68 13Z" fill="white"/>
<path d="M36 9.75C36 8.12602 37.3165 6.80952 38.9405 6.80952H59.0595C60.6835 6.80952 62 8.12602 62 9.75V13.7738C62 15.3978 60.6835 16.7143 59.0595 16.7143H38.9405C37.3165 16.7143 36 15.3978 36 13.7738V9.75Z" fill="#156A39"/>
<path d="M38.9598 9.29855H39.7034V13.7564H42.6741V9.29855H43.4177V13.7564C43.4177 13.858 43.3983 13.9547 43.3597 14.0466C43.321 14.1361 43.2678 14.2147 43.2001 14.2824C43.1323 14.3501 43.0525 14.4033 42.9607 14.442C42.8712 14.4807 42.7757 14.5 42.6741 14.5H39.7034C39.6018 14.5 39.5051 14.4807 39.4132 14.442C39.3238 14.4033 39.2452 14.3501 39.1775 14.2824C39.1097 14.2147 39.0565 14.1361 39.0179 14.0466C38.9792 13.9547 38.9598 13.858 38.9598 13.7564V9.29855ZM45.4997 12.2729C45.3982 12.2729 45.3014 12.2535 45.2095 12.2148C45.1201 12.1737 45.0415 12.1205 44.9738 12.0552C44.9061 11.9875 44.8529 11.9089 44.8142 11.8195C44.7755 11.7276 44.7561 11.6309 44.7561 11.5293V10.0421C44.7561 9.94057 44.7755 9.84505 44.8142 9.75558C44.8529 9.66369 44.9061 9.5851 44.9738 9.51981C45.0415 9.4521 45.1201 9.3989 45.2095 9.36021C45.3014 9.3191 45.3982 9.29855 45.4997 9.29855H48.0243C48.1258 9.29855 48.2214 9.3191 48.3108 9.36021C48.4027 9.3989 48.4825 9.4521 48.5502 9.51981C48.6179 9.5851 48.6711 9.66369 48.7098 9.75558C48.7485 9.84505 48.7679 9.94057 48.7679 10.0421V10.7132H48.0243V10.0421H45.4997V11.5293H48.0243C48.1258 11.5293 48.2214 11.5486 48.3108 11.5873C48.4027 11.626 48.4825 11.6792 48.5502 11.7469C48.6179 11.8146 48.6711 11.8944 48.7098 11.9863C48.7485 12.0758 48.7679 12.1713 48.7679 12.2729V13.7564C48.7679 13.858 48.7485 13.9547 48.7098 14.0466C48.6711 14.1361 48.6179 14.2147 48.5502 14.2824C48.4825 14.3501 48.4027 14.4033 48.3108 14.442C48.2214 14.4807 48.1258 14.5 48.0243 14.5H45.4272C45.3256 14.5 45.2289 14.4807 45.137 14.442C45.0475 14.4033 44.9689 14.3501 44.9012 14.2824C44.8335 14.2147 44.7803 14.1361 44.7416 14.0466C44.7029 13.9547 44.6836 13.858 44.6836 13.7564V13.089H45.4272V13.7564H48.0243V12.2729H45.4997ZM52.7542 13.7564C53.1 13.7564 53.366 13.6633 53.5522 13.4771C53.7384 13.2909 53.8315 13.0249 53.8315 12.6791V11.1194C53.8315 10.9501 53.8073 10.799 53.7589 10.666C53.7106 10.533 53.6392 10.4206 53.5449 10.3287C53.453 10.2344 53.3406 10.163 53.2076 10.1147C53.0746 10.0663 52.9235 10.0421 52.7542 10.0421H50.8535V13.7564H52.7542ZM50.1099 14.5V9.29855H52.7542C53.0323 9.29855 53.2826 9.34208 53.505 9.42913C53.7299 9.51377 53.9209 9.63588 54.0781 9.79548C54.2377 9.95266 54.3598 10.1437 54.4445 10.3686C54.5315 10.5935 54.5751 10.8438 54.5751 11.1194V12.6791C54.5751 12.9548 54.5315 13.2051 54.4445 13.43C54.3598 13.6549 54.2377 13.8471 54.0781 14.0067C53.9209 14.1639 53.7299 14.286 53.505 14.373C53.2826 14.4577 53.0323 14.5 52.7542 14.5H50.1099ZM55.3223 9.29855H59.4827V10.0421H57.7743V14.5H57.0307V10.0421H55.3223V9.29855Z" fill="white"/>
<rect x="74" width="23.5789" height="23.5789" rx="8.42105" fill="#4743FF"/>
<path d="M89.1716 11.2941L86.1733 16.4954L83.1663 11.2941H89.1716ZM92.1748 9.55651H80.1631L86.1733 19.9628L92.1748 9.56037V9.55651ZM78.161 6.09288L79.1621 7.83049H93.1759L94.1769 6.09288H78.161Z" fill="white"/>
<rect width="23.5789" height="23.5789" rx="8.42105" fill="white"/>
<path d="M12.2179 3L12.1038 3.38741V14.6281L12.2179 14.7419L17.4356 11.6576L12.2179 3Z" fill="#343434"/>
<path d="M12.2178 3L7 11.6576L12.2178 14.7419V9.28595V3Z" fill="#8C8C8C"/>
<path d="M12.2178 15.7297L12.1535 15.8081V19.8122L12.2178 19.9998L17.4386 12.6471L12.2178 15.7297Z" fill="#3C3C3B"/>
<path d="M12.2178 19.9998V15.7297L7 12.6471L12.2178 19.9998Z" fill="#8C8C8C"/>
<path d="M12.2178 14.7418L17.4355 11.6576L12.2178 9.2859V14.7418Z" fill="#141414"/>
<path d="M7 11.6576L12.2178 14.7418V9.2859L7 11.6576Z" fill="#393939"/>
</svg>
