<svg width="46" height="45" viewBox="0 0 46 45" fill="none" xmlns="http://www.w3.org/2000/svg">
<path d="M42.1831 25.423C41.7831 24.623 41.2831 23.823 40.8831 22.923C41.9831 21.023 42.8831 19.123 43.6831 17.123C45.7831 11.223 45.3831 6.423 42.4831 3.523C39.5831 0.623 34.6831 0.223 28.7831 2.323C26.7831 3.023 24.7831 4.023 22.9831 5.123C15.0831 0.422999 7.58309 -0.477001 3.58309 3.623C-0.416908 7.723 0.383096 15.023 5.0831 22.923C4.6831 23.623 4.28309 24.223 3.98309 24.923C0.283093 32.123 -0.116908 38.623 3.58309 42.323C5.48309 44.123 7.98309 45.023 10.4831 44.923C14.0831 44.823 17.5831 43.823 20.7831 42.023C22.4831 41.123 24.0831 40.223 25.5831 39.123C28.2831 37.223 30.6831 35.223 32.9831 32.923C34.1831 31.723 35.3831 30.423 36.4831 29.123C36.9831 28.623 37.3831 28.023 37.7831 27.423C38.1831 28.223 38.5831 29.123 38.8831 30.023C38.8831 30.123 38.9831 30.223 38.9831 30.423C39.5831 32.023 39.9831 33.723 39.9831 35.423C40.0831 36.623 39.6831 37.923 38.8831 38.823C37.3831 40.323 34.2831 40.323 30.3831 38.923C30.2831 38.923 30.0831 38.823 29.9831 38.823C29.0831 39.523 25.3 40.4 24.5 41L25.3831 42.123C26.4831 42.723 27.5831 43.123 28.7831 43.623C30.8831 44.423 33.1831 44.923 35.4831 44.923C36.7831 44.923 38.0831 44.723 39.3831 44.323C40.4831 43.923 41.5831 43.223 42.3831 42.423C45.2831 39.523 45.7831 34.623 43.5831 28.823C43.1831 27.623 42.7831 26.523 42.1831 25.423ZM30.4831 6.923C34.2831 5.523 37.4831 5.523 38.9831 7.023C40.4831 8.523 40.4831 11.623 39.0831 15.523C38.6831 16.523 38.2831 17.523 37.7831 18.423C36.2831 16.523 34.6831 14.723 32.9831 12.923C31.8831 11.823 30.6831 10.723 29.4831 9.723C28.7831 9.123 28.1831 8.623 27.4831 8.123C28.4831 7.723 29.4831 7.223 30.4831 6.923ZM6.98309 38.923C5.38309 37.323 5.48309 33.923 7.18309 29.723C7.48309 29.023 7.78309 28.323 8.18309 27.523C8.68309 28.223 9.28309 28.923 9.88309 29.523C10.8831 30.623 11.8831 31.823 12.9831 32.923C14.6831 34.623 16.4831 36.223 18.3831 37.723C17.5831 38.123 16.8831 38.423 16.0831 38.723C11.9831 40.423 8.58309 40.523 6.98309 38.923ZM29.4831 29.523C27.4831 31.523 25.2831 33.423 22.8831 35.023C18.8831 32.223 15.3831 28.923 12.3831 25.023C11.7831 24.323 11.2831 23.623 10.8831 22.923C12.4831 20.623 14.3831 18.423 16.3831 16.323C17.3486 15.3575 18.3141 14.4749 19.3329 13.6217C19.897 13.1495 20 11.5 19.9404 11.2793C18.4404 10.2793 18.0831 10.323 16.4831 9.623C15.2831 10.623 14.0831 11.723 12.9831 12.823C11.2831 14.523 9.68309 16.323 8.18309 18.223C5.58309 13.023 5.18309 8.723 6.98309 6.823C7.88309 6.023 9.18309 5.623 10.3831 5.723C14.9831 5.723 22.5831 9.323 29.4831 16.223C31.4831 18.223 33.3831 20.423 34.9831 22.723C34.5831 23.323 34.1831 23.923 33.6831 24.523C32.3831 26.423 30.9831 28.023 29.4831 29.523Z" fill="black"/>
<path d="M42.1831 25.423C41.7831 24.623 41.2831 23.823 40.8831 22.923C41.9831 21.023 42.8831 19.123 43.6831 17.123C45.7831 11.223 45.3831 6.423 42.4831 3.523C39.5831 0.623 34.6831 0.223 28.7831 2.323C26.7831 3.023 24.7831 4.023 22.9831 5.123C15.0831 0.422999 7.58309 -0.477001 3.58309 3.623C-0.416908 7.723 0.383096 15.023 5.0831 22.923C4.6831 23.623 4.28309 24.223 3.98309 24.923C0.283093 32.123 -0.116908 38.623 3.58309 42.323C5.48309 44.123 7.98309 45.023 10.4831 44.923C14.0831 44.823 17.5831 43.823 20.7831 42.023C22.4831 41.123 24.0831 40.223 25.5831 39.123C28.2831 37.223 30.6831 35.223 32.9831 32.923C34.1831 31.723 35.3831 30.423 36.4831 29.123C36.9831 28.623 37.3831 28.023 37.7831 27.423C38.1831 28.223 38.5831 29.123 38.8831 30.023C38.8831 30.123 38.9831 30.223 38.9831 30.423C39.5831 32.023 39.9831 33.723 39.9831 35.423C40.0831 36.623 39.6831 37.923 38.8831 38.823C37.3831 40.323 34.2831 40.323 30.3831 38.923C30.2831 38.923 30.0831 38.823 29.9831 38.823C29.0831 39.523 25.3 40.4 24.5 41L25.3831 42.123C26.4831 42.723 27.5831 43.123 28.7831 43.623C30.8831 44.423 33.1831 44.923 35.4831 44.923C36.7831 44.923 38.0831 44.723 39.3831 44.323C40.4831 43.923 41.5831 43.223 42.3831 42.423C45.2831 39.523 45.7831 34.623 43.5831 28.823C43.1831 27.623 42.7831 26.523 42.1831 25.423ZM30.4831 6.923C34.2831 5.523 37.4831 5.523 38.9831 7.023C40.4831 8.523 40.4831 11.623 39.0831 15.523C38.6831 16.523 38.2831 17.523 37.7831 18.423C36.2831 16.523 34.6831 14.723 32.9831 12.923C31.8831 11.823 30.6831 10.723 29.4831 9.723C28.7831 9.123 28.1831 8.623 27.4831 8.123C28.4831 7.723 29.4831 7.223 30.4831 6.923ZM6.98309 38.923C5.38309 37.323 5.48309 33.923 7.18309 29.723C7.48309 29.023 7.78309 28.323 8.18309 27.523C8.68309 28.223 9.28309 28.923 9.88309 29.523C10.8831 30.623 11.8831 31.823 12.9831 32.923C14.6831 34.623 16.4831 36.223 18.3831 37.723C17.5831 38.123 16.8831 38.423 16.0831 38.723C11.9831 40.423 8.58309 40.523 6.98309 38.923ZM29.4831 29.523C27.4831 31.523 25.2831 33.423 22.8831 35.023C18.8831 32.223 15.3831 28.923 12.3831 25.023C11.7831 24.323 11.2831 23.623 10.8831 22.923C12.4831 20.623 14.3831 18.423 16.3831 16.323C17.3486 15.3575 18.3141 14.4749 19.3329 13.6217C19.897 13.1495 20 11.5 19.9404 11.2793C18.4404 10.2793 18.0831 10.323 16.4831 9.623C15.2831 10.623 14.0831 11.723 12.9831 12.823C11.2831 14.523 9.68309 16.323 8.18309 18.223C5.58309 13.023 5.18309 8.723 6.98309 6.823C7.88309 6.023 9.18309 5.623 10.3831 5.723C14.9831 5.723 22.5831 9.323 29.4831 16.223C31.4831 18.223 33.3831 20.423 34.9831 22.723C34.5831 23.323 34.1831 23.923 33.6831 24.523C32.3831 26.423 30.9831 28.023 29.4831 29.523Z" fill="url(#paint0_linear_200_2)"/>
<path d="M42.1831 25.423C41.7831 24.623 41.2831 23.823 40.8831 22.923C41.9831 21.023 42.8831 19.123 43.6831 17.123C45.7831 11.223 45.3831 6.423 42.4831 3.523C39.5831 0.623 34.6831 0.223 28.7831 2.323C26.7831 3.023 24.7831 4.023 22.9831 5.123C15.0831 0.422999 7.58309 -0.477001 3.58309 3.623C-0.416908 7.723 0.383096 15.023 5.0831 22.923C4.6831 23.623 4.28309 24.223 3.98309 24.923C0.283093 32.123 -0.116908 38.623 3.58309 42.323C5.48309 44.123 7.98309 45.023 10.4831 44.923C14.0831 44.823 17.5831 43.823 20.7831 42.023C22.4831 41.123 24.0831 40.223 25.5831 39.123C28.2831 37.223 30.6831 35.223 32.9831 32.923C34.1831 31.723 35.3831 30.423 36.4831 29.123C36.9831 28.623 37.3831 28.023 37.7831 27.423C38.1831 28.223 38.5831 29.123 38.8831 30.023C38.8831 30.123 38.9831 30.223 38.9831 30.423C39.5831 32.023 39.9831 33.723 39.9831 35.423C40.0831 36.623 39.6831 37.923 38.8831 38.823C37.3831 40.323 34.2831 40.323 30.3831 38.923C30.2831 38.923 30.0831 38.823 29.9831 38.823C29.0831 39.523 25.3 40.4 24.5 41L25.3831 42.123C26.4831 42.723 27.5831 43.123 28.7831 43.623C30.8831 44.423 33.1831 44.923 35.4831 44.923C36.7831 44.923 38.0831 44.723 39.3831 44.323C40.4831 43.923 41.5831 43.223 42.3831 42.423C45.2831 39.523 45.7831 34.623 43.5831 28.823C43.1831 27.623 42.7831 26.523 42.1831 25.423ZM30.4831 6.923C34.2831 5.523 37.4831 5.523 38.9831 7.023C40.4831 8.523 40.4831 11.623 39.0831 15.523C38.6831 16.523 38.2831 17.523 37.7831 18.423C36.2831 16.523 34.6831 14.723 32.9831 12.923C31.8831 11.823 30.6831 10.723 29.4831 9.723C28.7831 9.123 28.1831 8.623 27.4831 8.123C28.4831 7.723 29.4831 7.223 30.4831 6.923ZM6.98309 38.923C5.38309 37.323 5.48309 33.923 7.18309 29.723C7.48309 29.023 7.78309 28.323 8.18309 27.523C8.68309 28.223 9.28309 28.923 9.88309 29.523C10.8831 30.623 11.8831 31.823 12.9831 32.923C14.6831 34.623 16.4831 36.223 18.3831 37.723C17.5831 38.123 16.8831 38.423 16.0831 38.723C11.9831 40.423 8.58309 40.523 6.98309 38.923ZM29.4831 29.523C27.4831 31.523 25.2831 33.423 22.8831 35.023C18.8831 32.223 15.3831 28.923 12.3831 25.023C11.7831 24.323 11.2831 23.623 10.8831 22.923C12.4831 20.623 14.3831 18.423 16.3831 16.323C17.3486 15.3575 18.3141 14.4749 19.3329 13.6217C19.897 13.1495 20 11.5 19.9404 11.2793C18.4404 10.2793 18.0831 10.323 16.4831 9.623C15.2831 10.623 14.0831 11.723 12.9831 12.823C11.2831 14.523 9.68309 16.323 8.18309 18.223C5.58309 13.023 5.18309 8.723 6.98309 6.823C7.88309 6.023 9.18309 5.623 10.3831 5.723C14.9831 5.723 22.5831 9.323 29.4831 16.223C31.4831 18.223 33.3831 20.423 34.9831 22.723C34.5831 23.323 34.1831 23.923 33.6831 24.523C32.3831 26.423 30.9831 28.023 29.4831 29.523Z" fill="#855596" fill-opacity="0.5"/>
<path d="M24.1256 27.557C26.6333 27.1501 28.3363 24.7872 27.9293 22.2795C27.5223 19.7717 25.1595 18.0687 22.6517 18.4757C20.144 18.8827 18.441 21.2456 18.848 23.7533C19.255 26.261 21.6178 27.964 24.1256 27.557Z" fill="black"/>
<path d="M24.1256 27.557C26.6333 27.1501 28.3363 24.7872 27.9293 22.2795C27.5223 19.7717 25.1595 18.0687 22.6517 18.4757C20.144 18.8827 18.441 21.2456 18.848 23.7533C19.255 26.261 21.6178 27.964 24.1256 27.557Z" fill="url(#paint1_linear_200_2)"/>
<path d="M24.1256 27.557C26.6333 27.1501 28.3363 24.7872 27.9293 22.2795C27.5223 19.7717 25.1595 18.0687 22.6517 18.4757C20.144 18.8827 18.441 21.2456 18.848 23.7533C19.255 26.261 21.6178 27.964 24.1256 27.557Z" fill="#855596" fill-opacity="0.5"/>
<path d="M41.1831 24.423C40.7831 23.623 40.2831 22.823 39.8831 21.923C40.9831 20.023 41.8831 18.123 42.6831 16.123C44.7831 10.223 44.3831 5.423 41.4831 2.523C38.5831 -0.377 33.6831 -0.777 27.7831 1.323C25.7831 2.023 23.7831 3.023 21.9831 4.123C14.0831 -0.577001 6.58309 -1.477 2.58309 2.623C-1.41691 6.723 -0.616904 14.023 4.0831 21.923C3.6831 22.623 3.28309 23.223 2.98309 23.923C-0.716907 31.123 -1.11691 37.623 2.58309 41.323C4.48309 43.123 6.98309 44.023 9.48309 43.923C13.0831 43.823 16.5831 42.823 19.7831 41.023C21.4831 40.123 23.0831 39.223 24.5831 38.123C27.2831 36.223 29.6831 34.223 31.9831 31.923C33.1831 30.723 34.3831 29.423 35.4831 28.123C35.9831 27.623 36.3831 27.023 36.7831 26.423C37.1831 27.223 37.5831 28.123 37.8831 29.023C37.8831 29.123 37.9831 29.223 37.9831 29.423C38.5831 31.023 38.9831 32.723 38.9831 34.423C39.0831 35.623 38.6831 36.923 37.8831 37.823C36.3831 39.323 33.2831 39.323 29.3831 37.923C29.2831 37.923 29.0831 37.823 28.9831 37.823C28.0831 38.523 27.1831 39.223 26.3831 39.823C25.6831 40.323 25.0831 40.723 24.3831 41.123C25.4831 41.723 26.5831 42.123 27.7831 42.623C29.8831 43.423 32.1831 43.923 34.4831 43.923C35.7831 43.923 37.0831 43.723 38.3831 43.323C39.4831 42.923 40.5831 42.223 41.3831 41.423C44.2831 38.523 44.7831 33.623 42.5831 27.823C42.1831 26.623 41.7831 25.523 41.1831 24.423ZM29.4831 5.923C33.2831 4.523 36.4831 4.523 37.9831 6.023C39.4831 7.523 39.4831 10.623 38.0831 14.523C37.6831 15.523 37.2831 16.523 36.7831 17.423C35.2831 15.523 33.6831 13.723 31.9831 11.923C30.8831 10.823 29.6831 9.723 28.4831 8.723C27.7831 8.123 27.1831 7.623 26.4831 7.123C27.4831 6.723 28.4831 6.223 29.4831 5.923ZM5.98309 37.923C4.38309 36.323 4.48309 32.923 6.18309 28.723C6.48309 28.023 6.78309 27.323 7.18309 26.523C7.68309 27.223 8.28309 27.923 8.88309 28.523C9.88309 29.623 10.8831 30.823 11.9831 31.923C13.6831 33.623 15.4831 35.223 17.3831 36.723C16.5831 37.123 15.8831 37.423 15.0831 37.723C10.9831 39.423 7.58309 39.523 5.98309 37.923ZM28.4831 28.523C26.4831 30.523 24.2831 32.423 21.8831 34.023C17.8831 31.223 14.3831 27.923 11.3831 24.023C10.7831 23.323 10.2831 22.623 9.88309 21.923C11.4831 19.623 13.3831 17.423 15.3831 15.323C16.8831 13.823 18.3831 12.523 20.0831 11.223C18.5831 10.223 17.0831 9.323 15.4831 8.623C14.2831 9.623 13.0831 10.723 11.9831 11.823C10.2831 13.523 8.68309 15.323 7.18309 17.223C4.58309 12.023 4.18309 7.723 5.98309 5.823C6.88309 5.023 8.18309 4.623 9.38309 4.723C13.9831 4.723 21.5831 8.323 28.4831 15.223C30.4831 17.223 32.3831 19.423 33.9831 21.723C33.5831 22.323 33.1831 22.923 32.6831 23.523C31.3831 25.423 29.9831 27.023 28.4831 28.523Z" fill="black"/>
<path d="M41.1831 24.423C40.7831 23.623 40.2831 22.823 39.8831 21.923C40.9831 20.023 41.8831 18.123 42.6831 16.123C44.7831 10.223 44.3831 5.423 41.4831 2.523C38.5831 -0.377 33.6831 -0.777 27.7831 1.323C25.7831 2.023 23.7831 3.023 21.9831 4.123C14.0831 -0.577001 6.58309 -1.477 2.58309 2.623C-1.41691 6.723 -0.616904 14.023 4.0831 21.923C3.6831 22.623 3.28309 23.223 2.98309 23.923C-0.716907 31.123 -1.11691 37.623 2.58309 41.323C4.48309 43.123 6.98309 44.023 9.48309 43.923C13.0831 43.823 16.5831 42.823 19.7831 41.023C21.4831 40.123 23.0831 39.223 24.5831 38.123C27.2831 36.223 29.6831 34.223 31.9831 31.923C33.1831 30.723 34.3831 29.423 35.4831 28.123C35.9831 27.623 36.3831 27.023 36.7831 26.423C37.1831 27.223 37.5831 28.123 37.8831 29.023C37.8831 29.123 37.9831 29.223 37.9831 29.423C38.5831 31.023 38.9831 32.723 38.9831 34.423C39.0831 35.623 38.6831 36.923 37.8831 37.823C36.3831 39.323 33.2831 39.323 29.3831 37.923C29.2831 37.923 29.0831 37.823 28.9831 37.823C28.0831 38.523 27.1831 39.223 26.3831 39.823C25.6831 40.323 25.0831 40.723 24.3831 41.123C25.4831 41.723 26.5831 42.123 27.7831 42.623C29.8831 43.423 32.1831 43.923 34.4831 43.923C35.7831 43.923 37.0831 43.723 38.3831 43.323C39.4831 42.923 40.5831 42.223 41.3831 41.423C44.2831 38.523 44.7831 33.623 42.5831 27.823C42.1831 26.623 41.7831 25.523 41.1831 24.423ZM29.4831 5.923C33.2831 4.523 36.4831 4.523 37.9831 6.023C39.4831 7.523 39.4831 10.623 38.0831 14.523C37.6831 15.523 37.2831 16.523 36.7831 17.423C35.2831 15.523 33.6831 13.723 31.9831 11.923C30.8831 10.823 29.6831 9.723 28.4831 8.723C27.7831 8.123 27.1831 7.623 26.4831 7.123C27.4831 6.723 28.4831 6.223 29.4831 5.923ZM5.98309 37.923C4.38309 36.323 4.48309 32.923 6.18309 28.723C6.48309 28.023 6.78309 27.323 7.18309 26.523C7.68309 27.223 8.28309 27.923 8.88309 28.523C9.88309 29.623 10.8831 30.823 11.9831 31.923C13.6831 33.623 15.4831 35.223 17.3831 36.723C16.5831 37.123 15.8831 37.423 15.0831 37.723C10.9831 39.423 7.58309 39.523 5.98309 37.923ZM28.4831 28.523C26.4831 30.523 24.2831 32.423 21.8831 34.023C17.8831 31.223 14.3831 27.923 11.3831 24.023C10.7831 23.323 10.2831 22.623 9.88309 21.923C11.4831 19.623 13.3831 17.423 15.3831 15.323C16.8831 13.823 18.3831 12.523 20.0831 11.223C18.5831 10.223 17.0831 9.323 15.4831 8.623C14.2831 9.623 13.0831 10.723 11.9831 11.823C10.2831 13.523 8.68309 15.323 7.18309 17.223C4.58309 12.023 4.18309 7.723 5.98309 5.823C6.88309 5.023 8.18309 4.623 9.38309 4.723C13.9831 4.723 21.5831 8.323 28.4831 15.223C30.4831 17.223 32.3831 19.423 33.9831 21.723C33.5831 22.323 33.1831 22.923 32.6831 23.523C31.3831 25.423 29.9831 27.023 28.4831 28.523Z" fill="url(#paint2_linear_200_2)"/>
<path d="M23.1256 26.557C25.6333 26.1501 27.3363 23.7872 26.9293 21.2795C26.5223 18.7717 24.1595 17.0687 21.6517 17.4757C19.144 17.8827 17.441 20.2456 17.848 22.7533C18.255 25.261 20.6178 26.964 23.1256 26.557Z" fill="black"/>
<path d="M23.1256 26.557C25.6333 26.1501 27.3363 23.7872 26.9293 21.2795C26.5223 18.7717 24.1595 17.0687 21.6517 17.4757C19.144 17.8827 17.441 20.2456 17.848 22.7533C18.255 25.261 20.6178 26.964 23.1256 26.557Z" fill="url(#paint3_linear_200_2)"/>
<defs>
<linearGradient id="paint0_linear_200_2" x1="23.003" y1="1" x2="23.003" y2="44.9305" gradientUnits="userSpaceOnUse">
<stop stop-color="#F540C3"/>
<stop offset="1" stop-color="#AB21FF" stop-opacity="0.39"/>
</linearGradient>
<linearGradient id="paint1_linear_200_2" x1="22.6517" y1="18.4757" x2="24.1256" y2="27.557" gradientUnits="userSpaceOnUse">
<stop stop-color="#F540C3"/>
<stop offset="1" stop-color="#AB21FF" stop-opacity="0.39"/>
</linearGradient>
<linearGradient id="paint2_linear_200_2" x1="22.003" y1="0" x2="22.003" y2="43.9305" gradientUnits="userSpaceOnUse">
<stop stop-color="#F540C3"/>
<stop offset="1" stop-color="#AB21FF" stop-opacity="0.39"/>
</linearGradient>
<linearGradient id="paint3_linear_200_2" x1="21.6517" y1="17.4757" x2="23.1256" y2="26.557" gradientUnits="userSpaceOnUse">
<stop stop-color="#F540C3"/>
<stop offset="1" stop-color="#AB21FF" stop-opacity="0.39"/>
</linearGradient>
</defs>
</svg>
