<svg width="97" height="25" viewBox="0 0 97 25" fill="none" xmlns="http://www.w3.org/2000/svg">
<rect x="73" width="23.5789" height="23.5789" rx="8.42105" fill="#4743FF"/>
<path d="M88.1716 11.2941L85.1733 16.4954L82.1663 11.2941H88.1716ZM91.1748 9.55651H79.1631L85.1733 19.9628L91.1748 9.56037V9.55651ZM77.161 6.09288L78.1621 7.83049H92.1759L93.1769 6.09288H77.161Z" fill="white"/>
<path d="M14.0076 19.5799V22.2241L11.7022 23.5789L9.4623 22.2241V19.5799L11.7022 20.9348L14.0076 19.5799ZM1.6718 10.4346L3.9117 11.7895V16.3239L7.7687 18.6293V21.2735L1.6718 17.6787V10.4346ZM21.7325 10.4346V17.6897L15.5701 21.2844V18.6403L19.4271 16.3348V11.8004L21.7325 10.4346ZM15.5592 6.83986L17.8646 8.19472V10.8389L14.0076 13.1443V17.7443L11.7677 19.0992L9.5388 17.7443V13.1334L5.5397 10.828V8.18379L7.8452 6.82893L11.7022 9.13438L15.5592 6.83986ZM5.5397 12.7291L7.7796 14.084V16.7282L5.5397 15.3733V12.7291ZM17.8646 12.7291V15.3733L15.6247 16.7282V14.084L17.8646 12.7291ZM3.9117 4.53441L6.2172 5.88927L3.9117 7.24413V9.8883L1.6718 8.53344V5.88927L3.9117 4.53441ZM19.4926 4.53441L21.7981 5.88927V8.53344L19.4926 9.8883V7.24413L17.2527 5.88927L19.4926 4.53441ZM11.7022 4.53441L14.0076 5.88927L11.7022 7.24413L9.4623 5.88927L11.7022 4.53441ZM11.7022 0L17.8646 3.59475L15.6247 4.94961L11.7677 2.64416L7.8343 4.94961L5.5944 3.59475L11.7022 0Z" fill="#F3BA2F"/>
<path fill-rule="evenodd" clip-rule="evenodd" d="M49 9C49.2761 9 49.5 8.77614 49.5 8.5C49.5 8.22386 49.2761 8 49 8C48.7239 8 48.5 8.22386 48.5 8.5C48.5 8.77614 48.7239 9 49 9ZM49 13C49.5523 13 50 12.5523 50 12C50 11.4477 49.5523 11 49 11C48.4477 11 48 11.4477 48 12C48 12.5523 48.4477 13 49 13ZM52.5 12.5C52.7761 12.5 53 12.2761 53 12C53 11.7239 52.7761 11.5 52.5 11.5C52.2239 11.5 52 11.7239 52 12C52 12.2761 52.2239 12.5 52.5 12.5ZM46 12C46 12.2761 45.7761 12.5 45.5 12.5C45.2239 12.5 45 12.2761 45 12C45 11.7239 45.2239 11.5 45.5 11.5C45.7761 11.5 46 11.7239 46 12ZM43 12C43 12.2761 42.7761 12.5 42.5 12.5C42.2239 12.5 42 12.2761 42 12C42 11.7239 42.2239 11.5 42.5 11.5C42.7761 11.5 43 11.7239 43 12ZM39.5 12.5C39.7761 12.5 40 12.2761 40 12C40 11.7239 39.7761 11.5 39.5 11.5C39.2239 11.5 39 11.7239 39 12C39 12.2761 39.2239 12.5 39.5 12.5ZM37 12C37 12.2761 36.7761 12.5 36.5 12.5C36.2239 12.5 36 12.2761 36 12C36 11.7239 36.2239 11.5 36.5 11.5C36.7761 11.5 37 11.7239 37 12ZM33.5 12.5C33.7761 12.5 34 12.2761 34 12C34 11.7239 33.7761 11.5 33.5 11.5C33.2239 11.5 33 11.7239 33 12C33 12.2761 33.2239 12.5 33.5 12.5ZM31 12C31 12.5523 30.5523 13 30 13C29.4477 13 29 12.5523 29 12C29 11.4477 29.4477 11 30 11C30.5523 11 31 11.4477 31 12ZM55.5 12.5C55.7761 12.5 56 12.2761 56 12C56 11.7239 55.7761 11.5 55.5 11.5C55.2239 11.5 55 11.7239 55 12C55 12.2761 55.2239 12.5 55.5 12.5ZM59 12C59 12.2761 58.7761 12.5 58.5 12.5C58.2239 12.5 58 12.2761 58 12C58 11.7239 58.2239 11.5 58.5 11.5C58.7761 11.5 59 11.7239 59 12ZM61.5 12.5C61.7761 12.5 62 12.2761 62 12C62 11.7239 61.7761 11.5 61.5 11.5C61.2239 11.5 61 11.7239 61 12C61 12.2761 61.2239 12.5 61.5 12.5ZM65 12C65 12.2761 64.7761 12.5 64.5 12.5C64.2239 12.5 64 12.2761 64 12C64 11.7239 64.2239 11.5 64.5 11.5C64.7761 11.5 65 11.7239 65 12ZM68 13C68.5523 13 69 12.5523 69 12C69 11.4477 68.5523 11 68 11C67.4477 11 67 11.4477 67 12C67 12.5523 67.4477 13 68 13Z" fill="url(#paint0_linear_7_349)"/>
<path d="M36 9.75C36 8.12602 37.3165 6.80952 38.9405 6.80952H59.0595C60.6835 6.80952 62 8.12602 62 9.75V13.7738C62 15.3978 60.6835 16.7143 59.0595 16.7143H38.9405C37.3165 16.7143 36 15.3978 36 13.7738V9.75Z" fill="#156A39"/>
<path d="M42.0393 11.7868C42.1482 11.8207 42.2473 11.869 42.3368 11.9319C42.4262 11.9948 42.5024 12.0758 42.5653 12.1749C42.6282 12.2717 42.6765 12.3865 42.7104 12.5195C42.7442 12.6525 42.7612 12.8049 42.7612 12.9766V13.2377C42.7612 14.0792 42.3404 14.5 41.4989 14.5H38.6515V9.29855H41.3502C42.1917 9.29855 42.6124 9.72052 42.6124 10.5645V10.6588C42.6124 10.9514 42.5653 11.1908 42.471 11.377C42.3791 11.5607 42.2352 11.6974 42.0393 11.7868ZM39.3806 12.233V13.7709H41.4771C41.673 13.7709 41.8145 13.725 41.9015 13.6331C41.9886 13.5412 42.0321 13.3973 42.0321 13.2015V12.7988C42.0321 12.6005 41.9886 12.4567 41.9015 12.3672C41.8145 12.2777 41.673 12.233 41.4771 12.233H39.3806ZM39.3806 10.0276V11.5075H41.3792C41.5581 11.5003 41.6863 11.4519 41.7637 11.3624C41.8435 11.2706 41.8834 11.1303 41.8834 10.9417V10.6007C41.8834 10.4024 41.8398 10.2573 41.7528 10.1655C41.6657 10.0736 41.5243 10.0276 41.3284 10.0276H39.3806ZM43.8747 9.29855H44.6183V13.7564H47.589V9.29855H48.3326V13.7564C48.3326 13.858 48.3132 13.9547 48.2746 14.0466C48.2359 14.1361 48.1827 14.2147 48.115 14.2824C48.0472 14.3501 47.9674 14.4033 47.8756 14.442C47.7861 14.4807 47.6906 14.5 47.589 14.5H44.6183C44.5167 14.5 44.42 14.4807 44.3281 14.442C44.2387 14.4033 44.1601 14.3501 44.0924 14.2824C44.0246 14.2147 43.9714 14.1361 43.9328 14.0466C43.8941 13.9547 43.8747 13.858 43.8747 13.7564V9.29855ZM50.4146 12.2729C50.3131 12.2729 50.2163 12.2535 50.1244 12.2148C50.035 12.1737 49.9564 12.1205 49.8887 12.0552C49.821 11.9875 49.7678 11.9089 49.7291 11.8195C49.6904 11.7276 49.671 11.6309 49.671 11.5293V10.0421C49.671 9.94057 49.6904 9.84505 49.7291 9.75558C49.7678 9.66369 49.821 9.5851 49.8887 9.51981C49.9564 9.4521 50.035 9.3989 50.1244 9.36021C50.2163 9.3191 50.3131 9.29855 50.4146 9.29855H52.9392C53.0407 9.29855 53.1363 9.3191 53.2257 9.36021C53.3176 9.3989 53.3974 9.4521 53.4651 9.51981C53.5328 9.5851 53.586 9.66369 53.6247 9.75558C53.6634 9.84505 53.6828 9.94057 53.6828 10.0421V10.7132H52.9392V10.0421H50.4146V11.5293H52.9392C53.0407 11.5293 53.1363 11.5486 53.2257 11.5873C53.3176 11.626 53.3974 11.6792 53.4651 11.7469C53.5328 11.8146 53.586 11.8944 53.6247 11.9863C53.6634 12.0758 53.6828 12.1713 53.6828 12.2729V13.7564C53.6828 13.858 53.6634 13.9547 53.6247 14.0466C53.586 14.1361 53.5328 14.2147 53.4651 14.2824C53.3974 14.3501 53.3176 14.4033 53.2257 14.442C53.1363 14.4807 53.0407 14.5 52.9392 14.5H50.3421C50.2405 14.5 50.1438 14.4807 50.0519 14.442C49.9624 14.4033 49.8838 14.3501 49.8161 14.2824C49.7484 14.2147 49.6952 14.1361 49.6565 14.0466C49.6178 13.9547 49.5985 13.858 49.5985 13.7564V13.089H50.3421V13.7564H52.9392V12.2729H50.4146ZM57.6691 13.7564C58.0149 13.7564 58.2809 13.6633 58.4671 13.4771C58.6533 13.2909 58.7464 13.0249 58.7464 12.6791V11.1194C58.7464 10.9501 58.7222 10.799 58.6738 10.666C58.6255 10.533 58.5541 10.4206 58.4598 10.3287C58.3679 10.2344 58.2555 10.163 58.1225 10.1147C57.9895 10.0663 57.8384 10.0421 57.6691 10.0421H55.7684V13.7564H57.6691ZM55.0248 14.5V9.29855H57.6691C57.9472 9.29855 58.1974 9.34208 58.4199 9.42913C58.6448 9.51377 58.8358 9.63588 58.993 9.79548C59.1526 9.95266 59.2747 10.1437 59.3594 10.3686C59.4464 10.5935 59.49 10.8438 59.49 11.1194V12.6791C59.49 12.9548 59.4464 13.2051 59.3594 13.43C59.2747 13.6549 59.1526 13.8471 58.993 14.0067C58.8358 14.1639 58.6448 14.286 58.4199 14.373C58.1974 14.4577 57.9472 14.5 57.6691 14.5H55.0248Z" fill="white"/>
<defs>
<linearGradient id="paint0_linear_7_349" x1="67.5" y1="12.3751" x2="29" y2="12.3751" gradientUnits="userSpaceOnUse">
<stop stop-color="white"/>
<stop offset="1" stop-color="white"/>
</linearGradient>
</defs>
</svg>
