<svg width="98" height="24" viewBox="0 0 98 24" fill="none" xmlns="http://www.w3.org/2000/svg">
<path fill-rule="evenodd" clip-rule="evenodd" d="M49 9C49.2761 9 49.5 8.77614 49.5 8.5C49.5 8.22386 49.2761 8 49 8C48.7239 8 48.5 8.22386 48.5 8.5C48.5 8.77614 48.7239 9 49 9ZM49 13C49.5523 13 50 12.5523 50 12C50 11.4477 49.5523 11 49 11C48.4477 11 48 11.4477 48 12C48 12.5523 48.4477 13 49 13ZM52.5 12.5C52.7761 12.5 53 12.2761 53 12C53 11.7239 52.7761 11.5 52.5 11.5C52.2239 11.5 52 11.7239 52 12C52 12.2761 52.2239 12.5 52.5 12.5ZM46 12C46 12.2761 45.7761 12.5 45.5 12.5C45.2239 12.5 45 12.2761 45 12C45 11.7239 45.2239 11.5 45.5 11.5C45.7761 11.5 46 11.7239 46 12ZM43 12C43 12.2761 42.7761 12.5 42.5 12.5C42.2239 12.5 42 12.2761 42 12C42 11.7239 42.2239 11.5 42.5 11.5C42.7761 11.5 43 11.7239 43 12ZM39.5 12.5C39.7761 12.5 40 12.2761 40 12C40 11.7239 39.7761 11.5 39.5 11.5C39.2239 11.5 39 11.7239 39 12C39 12.2761 39.2239 12.5 39.5 12.5ZM37 12C37 12.2761 36.7761 12.5 36.5 12.5C36.2239 12.5 36 12.2761 36 12C36 11.7239 36.2239 11.5 36.5 11.5C36.7761 11.5 37 11.7239 37 12ZM33.5 12.5C33.7761 12.5 34 12.2761 34 12C34 11.7239 33.7761 11.5 33.5 11.5C33.2239 11.5 33 11.7239 33 12C33 12.2761 33.2239 12.5 33.5 12.5ZM31 12C31 12.5523 30.5523 13 30 13C29.4477 13 29 12.5523 29 12C29 11.4477 29.4477 11 30 11C30.5523 11 31 11.4477 31 12ZM55.5 12.5C55.7761 12.5 56 12.2761 56 12C56 11.7239 55.7761 11.5 55.5 11.5C55.2239 11.5 55 11.7239 55 12C55 12.2761 55.2239 12.5 55.5 12.5ZM59 12C59 12.2761 58.7761 12.5 58.5 12.5C58.2239 12.5 58 12.2761 58 12C58 11.7239 58.2239 11.5 58.5 11.5C58.7761 11.5 59 11.7239 59 12ZM61.5 12.5C61.7761 12.5 62 12.2761 62 12C62 11.7239 61.7761 11.5 61.5 11.5C61.2239 11.5 61 11.7239 61 12C61 12.2761 61.2239 12.5 61.5 12.5ZM65 12C65 12.2761 64.7761 12.5 64.5 12.5C64.2239 12.5 64 12.2761 64 12C64 11.7239 64.2239 11.5 64.5 11.5C64.7761 11.5 65 11.7239 65 12ZM68 13C68.5523 13 69 12.5523 69 12C69 11.4477 68.5523 11 68 11C67.4477 11 67 11.4477 67 12C67 12.5523 67.4477 13 68 13Z" fill="url(#paint0_linear_7_473)"/>
<path d="M36 9.75C36 8.12602 37.3165 6.80952 38.9405 6.80952H59.0595C60.6835 6.80952 62 8.12602 62 9.75V13.7738C62 15.3978 60.6835 16.7143 59.0595 16.7143H38.9405C37.3165 16.7143 36 15.3978 36 13.7738V9.75Z" fill="#2E2E2E"/>
<path d="M42.0103 9.29855H45.8008V10.0421H42.7539V11.5293H45.3546V12.2729H42.7539V13.7564H45.8008V14.5H42.0103V9.29855ZM46.4682 9.29855H50.6286V10.0421H48.9202V14.5H48.1766V10.0421H46.4682V9.29855ZM55.986 9.29855V14.5H55.2425V12.2729H52.2645V14.5H51.5209V9.29855H52.2645V11.5293H55.2425V9.29855H55.986Z" fill="white"/>
<rect x="74" width="23.5789" height="23.5789" rx="8.42105" fill="#4743FF"/>
<path d="M89.1716 11.2941L86.1733 16.4954L83.1663 11.2941H89.1716ZM92.1748 9.55651H80.1631L86.1733 19.9628L92.1748 9.56037V9.55651ZM78.161 6.09288L79.1621 7.83049H93.1759L94.1769 6.09288H78.161Z" fill="white"/>
<rect width="23.5789" height="23.5789" rx="8.42105" fill="white"/>
<path d="M12.2179 3L12.1038 3.38741V14.6281L12.2179 14.7419L17.4356 11.6576L12.2179 3Z" fill="#343434"/>
<path d="M12.2178 3L7 11.6576L12.2178 14.7419V9.28595V3Z" fill="#8C8C8C"/>
<path d="M12.2178 15.7297L12.1535 15.8081V19.8122L12.2178 19.9998L17.4386 12.6471L12.2178 15.7297Z" fill="#3C3C3B"/>
<path d="M12.2178 19.9998V15.7297L7 12.6471L12.2178 19.9998Z" fill="#8C8C8C"/>
<path d="M12.2178 14.7418L17.4355 11.6576L12.2178 9.28589V14.7418Z" fill="#141414"/>
<path d="M7 11.6576L12.2178 14.7418V9.28589L7 11.6576Z" fill="#393939"/>
<defs>
<linearGradient id="paint0_linear_7_473" x1="67.5" y1="12.3751" x2="29" y2="12.3751" gradientUnits="userSpaceOnUse">
<stop stop-color="white"/>
<stop offset="1" stop-color="white"/>
</linearGradient>
</defs>
</svg>
