<svg width="202" height="51" viewBox="0 0 202 51" fill="none" xmlns="http://www.w3.org/2000/svg">
<path d="M41.1831 24.423C40.7831 23.623 40.2831 22.823 39.8831 21.923C40.9831 20.023 41.8831 18.123 42.6831 16.123C44.7831 10.223 44.3831 5.423 41.4831 2.523C38.5831 -0.377 33.6831 -0.777 27.7831 1.323C25.7831 2.023 23.7831 3.023 21.9831 4.123C14.0831 -0.577001 6.58309 -1.477 2.58309 2.623C-1.41691 6.723 -0.616904 14.023 4.0831 21.923C3.6831 22.623 3.28309 23.223 2.98309 23.923C-0.716907 31.123 -1.11691 37.623 2.58309 41.323C4.48309 43.123 6.98309 44.023 9.48309 43.923C13.0831 43.823 16.5831 42.823 19.7831 41.023C21.4831 40.123 23.0831 39.223 24.5831 38.123C27.2831 36.223 29.6831 34.223 31.9831 31.923C33.1831 30.723 34.3831 29.423 35.4831 28.123C35.9831 27.623 36.3831 27.023 36.7831 26.423C37.1831 27.223 37.5831 28.123 37.8831 29.023C37.8831 29.123 37.9831 29.223 37.9831 29.423C38.5831 31.023 38.9831 32.723 38.9831 34.423C39.0831 35.623 38.6831 36.923 37.8831 37.823C36.3831 39.323 33.2831 39.323 29.3831 37.923C29.2831 37.923 29.0831 37.823 28.9831 37.823C28.0831 38.523 27.1831 39.223 26.3831 39.823C25.6831 40.323 25.0831 40.723 24.3831 41.123C25.4831 41.723 26.5831 42.123 27.7831 42.623C29.8831 43.423 32.1831 43.923 34.4831 43.923C35.7831 43.923 37.0831 43.723 38.3831 43.323C39.4831 42.923 40.5831 42.223 41.3831 41.423C44.2831 38.523 44.7831 33.623 42.5831 27.823C42.1831 26.623 41.7831 25.523 41.1831 24.423ZM29.4831 5.923C33.2831 4.523 36.4831 4.523 37.9831 6.023C39.4831 7.523 39.4831 10.623 38.0831 14.523C37.6831 15.523 37.2831 16.523 36.7831 17.423C35.2831 15.523 33.6831 13.723 31.9831 11.923C30.8831 10.823 29.6831 9.723 28.4831 8.723C27.7831 8.123 27.1831 7.623 26.4831 7.123C27.4831 6.723 28.4831 6.223 29.4831 5.923ZM5.98309 37.923C4.38309 36.323 4.48309 32.923 6.18309 28.723C6.48309 28.023 6.78309 27.323 7.18309 26.523C7.68309 27.223 8.28309 27.923 8.88309 28.523C9.88309 29.623 10.8831 30.823 11.9831 31.923C13.6831 33.623 15.4831 35.223 17.3831 36.723C16.5831 37.123 15.8831 37.423 15.0831 37.723C10.9831 39.423 7.58309 39.523 5.98309 37.923ZM28.4831 28.523C26.4831 30.523 24.2831 32.423 21.8831 34.023C17.8831 31.223 14.3831 27.923 11.3831 24.023C10.7831 23.323 10.2831 22.623 9.88309 21.923C11.4831 19.623 13.3831 17.423 15.3831 15.323C16.8831 13.823 18.3831 12.523 20.0831 11.223C18.5831 10.223 17.0831 9.323 15.4831 8.623C14.2831 9.623 13.0831 10.723 11.9831 11.823C10.2831 13.523 8.68309 15.323 7.18309 17.223C4.58309 12.023 4.18309 7.723 5.98309 5.823C6.88309 5.023 8.18309 4.623 9.38309 4.723C13.9831 4.723 21.5831 8.323 28.4831 15.223C30.4831 17.223 32.3831 19.423 33.9831 21.723C33.5831 22.323 33.1831 22.923 32.6831 23.523C31.3831 25.423 29.9831 27.023 28.4831 28.523Z" fill="white"/>
<path d="M59.45 5.89197H72.468C75.7493 5.89197 78.3253 6.68931 80.196 8.28397C82.0973 9.87864 83.048 11.9026 83.048 14.356C83.048 17.944 80.9626 20.3513 76.792 21.578C78.908 21.8846 80.5946 22.8046 81.852 24.338C83.14 25.8406 83.784 27.5886 83.784 29.582C83.784 32.0966 82.8333 34.136 80.932 35.7C79.0306 37.2333 76.4546 38 73.204 38H59.45V5.89197ZM65.936 10.86V19.186H71.778C73.2193 19.186 74.354 18.8333 75.182 18.128C76.0406 17.392 76.47 16.3646 76.47 15.046C76.47 13.7273 76.0406 12.7 75.182 11.964C74.354 11.228 73.2193 10.86 71.778 10.86H65.936ZM65.936 33.032H72.468C73.9093 33.032 75.0593 32.6486 75.918 31.882C76.8073 31.0846 77.252 29.996 77.252 28.616C77.252 27.236 76.8073 26.1473 75.918 25.35C75.0286 24.5526 73.8633 24.154 72.422 24.154H65.936V33.032Z" fill="white"/>
<path d="M94.4739 12.516V17.024C96.1913 13.7733 98.6753 12.148 101.926 12.148V18.772H100.316C98.3839 18.772 96.9273 19.2626 95.9459 20.244C94.9646 21.1946 94.4739 22.8506 94.4739 25.212V38H87.9879V12.516H94.4739Z" fill="white"/>
<path d="M112.337 6.02997C112.337 7.13397 111.953 8.06931 111.187 8.83597C110.42 9.60264 109.485 9.98597 108.381 9.98597C107.307 9.98597 106.387 9.60264 105.621 8.83597C104.854 8.06931 104.471 7.13397 104.471 6.02997C104.471 4.92597 104.854 3.99064 105.621 3.22397C106.387 2.45731 107.307 2.07397 108.381 2.07397C109.485 2.07397 110.42 2.45731 111.187 3.22397C111.953 3.99064 112.337 4.92597 112.337 6.02997ZM105.161 38V12.516H111.647V38H105.161Z" fill="white"/>
<path d="M133.405 30.778C134.755 29.4286 135.429 27.5886 135.429 25.258C135.429 22.9273 134.755 21.1026 133.405 19.784C132.056 18.4346 130.477 17.76 128.667 17.76C126.858 17.76 125.279 18.4193 123.929 19.738C122.611 21.0566 121.951 22.8813 121.951 25.212C121.951 27.5426 122.626 29.3826 123.975 30.732C125.325 32.0813 126.889 32.756 128.667 32.756C130.477 32.756 132.056 32.0966 133.405 30.778ZM118.777 34.688C116.508 32.204 115.373 29.0453 115.373 25.212C115.373 21.3786 116.508 18.2506 118.777 15.828C121.047 13.3746 123.929 12.148 127.425 12.148C130.921 12.148 133.589 13.5893 135.429 16.472V3.95997H141.869V38H135.429V33.722C133.497 36.8193 130.814 38.368 127.379 38.368C123.945 38.368 121.077 37.1413 118.777 34.688Z" fill="white"/>
<path d="M148.977 34.688C146.708 32.204 145.573 29.0453 145.573 25.212C145.573 21.3786 146.708 18.2506 148.977 15.828C151.247 13.3746 154.129 12.148 157.625 12.148C161.121 12.148 163.789 13.5893 165.629 16.472V12.516H172.069V38.184C172.069 41.8333 170.996 44.808 168.849 47.108C166.703 49.4386 163.682 50.604 159.787 50.604C155.923 50.604 152.841 49.7913 150.541 48.166C148.272 46.5713 146.984 44.2866 146.677 41.312H153.025C153.424 42.4466 154.191 43.336 155.325 43.98C156.46 44.6546 157.886 44.992 159.603 44.992C161.321 44.992 162.747 44.4246 163.881 43.29C165.047 42.1553 165.629 40.4533 165.629 38.184V33.722C163.697 36.8193 161.014 38.368 157.579 38.368C154.145 38.368 151.277 37.1413 148.977 34.688ZM163.605 30.778C164.955 29.4286 165.629 27.5886 165.629 25.258C165.629 22.9273 164.955 21.1026 163.605 19.784C162.256 18.4346 160.677 17.76 158.867 17.76C157.058 17.76 155.479 18.4193 154.129 19.738C152.811 21.0566 152.151 22.8813 152.151 25.212C152.151 27.5426 152.826 29.3826 154.175 30.732C155.525 32.0813 157.089 32.756 158.867 32.756C160.677 32.756 162.256 32.0966 163.605 30.778Z" fill="white"/>
<path d="M188.332 38.368C184.621 38.368 181.6 37.172 179.27 34.78C176.939 32.3573 175.774 29.168 175.774 25.212C175.774 21.256 176.939 18.0973 179.27 15.736C181.631 13.344 184.667 12.148 188.378 12.148C192.119 12.148 195.186 13.3133 197.578 15.644C199.97 17.944 201.166 21.026 201.166 24.89C201.166 25.7793 201.104 26.6073 200.982 27.374H182.398C182.551 29.03 183.164 30.364 184.238 31.376C185.311 32.388 186.676 32.894 188.332 32.894C190.57 32.894 192.226 31.974 193.3 30.134H200.292C199.556 32.5566 198.13 34.5346 196.014 36.068C193.898 37.6013 191.337 38.368 188.332 38.368ZM194.45 23.188C194.358 21.5013 193.729 20.152 192.564 19.14C191.429 18.128 190.049 17.622 188.424 17.622C186.798 17.622 185.434 18.128 184.33 19.14C183.256 20.152 182.612 21.5013 182.398 23.188H194.45Z" fill="white"/>
<path d="M23.1256 26.557C25.6333 26.1501 27.3363 23.7872 26.9293 21.2795C26.5223 18.7717 24.1595 17.0687 21.6517 17.4757C19.144 17.8827 17.441 20.2456 17.848 22.7533C18.255 25.261 20.6178 26.964 23.1256 26.557Z" fill="white"/>
</svg>
